<?xml version="1.0" encoding="UTF-8"?>
<svg id="Layer_1" data-name="Layer 1" xmlns="http://www.w3.org/2000/svg" viewBox="0 0 1024 1024">
  <defs>
    <style>
      .cls-1 {
        fill: #21a7e0;
      }

      .cls-2 {
        fill: #23b6ea;
      }

      .cls-3 {
        fill: #21b3e8;
      }
    </style>
  </defs>
  <path class="cls-1" d="m758.53,162.87c-9.68-53.4-60.82-88.84-114.22-79.15l-503.57,91.31c-48.18,8.74-81.74,51.22-80.72,98.67h718.61l-20.09-110.82Z"/>
  <path class="cls-3" d="m598.75,655.33h-21.42c-16.12,17.86-39.44,29.1-65.34,29.1-8.27,0-16.27-1.16-23.86-3.3,12.7,6.4,25.76,12.74,39.16,19.02,29.66-4.34,55.3-21.09,71.45-44.81Z"/>
  <path class="cls-3" d="m424.36,604.81h192.17c.22-2.78.34-5.59.34-8.42,0-57.92-46.96-104.88-104.88-104.88s-104.88,46.96-104.88,104.88c0,16.9,4.01,32.87,11.11,47.01,12.41,7.18,25.21,14.3,38.42,21.37-17.87-14.49-29.98-35.81-32.28-59.96Zm87.63-96.46c45.7,0,83.38,35.01,87.63,79.62h-175.26c4.25-44.61,41.93-79.62,87.63-79.62Z"/>
  <path class="cls-2" d="m865.75,273.69H59.99v1.91c42.72,99.15,134.27,230.94,330.18,351.09-2.41-9.71-3.69-19.86-3.69-30.31,0-69.32,56.19-125.52,125.51-125.52s125.52,56.2,125.52,125.52c0,53.51-33.48,99.18-80.64,117.24,111.04,49.3,245.15,94.18,407.12,130.82,0-.28.01-.56.01-.83v-471.66c0-54.27-43.99-98.26-98.26-98.26Z"/>
  <path class="cls-3" d="m456.64,664.77c-13.2-7.07-26-14.19-38.42-21.37,17.24,34.31,52.75,57.86,93.77,57.86,5.2,0,10.31-.39,15.3-1.12-13.41-6.28-26.46-12.62-39.16-19.02-11.65-3.29-22.33-8.92-31.49-16.35Z"/>
  <path class="cls-1" d="m511.99,721.9c-58.87,0-108.26-40.53-121.82-95.21C194.26,506.54,102.71,374.76,59.99,275.6v568.02c0,54.27,43.99,98.26,98.26,98.26h707.49c53.99,0,97.8-43.54,98.25-97.43-161.98-36.64-296.08-81.52-407.12-130.82-13.94,5.34-29.07,8.27-44.88,8.27Z"/>
  <path class="cls-3" d="m456.64,664.77c9.16,7.43,19.84,13.06,31.49,16.35-10.74-5.41-21.24-10.86-31.49-16.35Z"/>
</svg>